<svg width="535" height="479" viewBox="0 0 535 479" fill="none" xmlns="http://www.w3.org/2000/svg">
<g opacity="0.33">
<path d="M110.117 458.412H68.0081V458.746H110.117V458.412Z" fill="#E6E6E6"/>
<path d="M54.6839 458.412H30.2854V458.746H54.6839V458.412Z" fill="#E6E6E6"/>
<path d="M219.116 459.336H194.718V459.671H219.116V459.336Z" fill="#E6E6E6"/>
<path d="M346.334 464.804H291.422V465.139H346.334V464.804Z" fill="#E6E6E6"/>
<path d="M280.106 470.804H272.058V471.139H280.106V470.804Z" fill="#E6E6E6"/>
<path d="M527.816 463.336H408.71V463.671H527.816V463.336Z" fill="#E6E6E6"/>
<path d="M252.745 378.474H7.24708C5.32387 378.471 3.48058 377.664 2.12185 376.231C0.763122 374.798 -2.94934e-06 372.857 0 370.832V7.57483C0.016742 5.56205 0.787254 3.6375 2.14417 2.21921C3.50109 0.800923 5.33483 0.00344801 7.24708 0H252.745C254.671 0 256.517 0.805111 257.879 2.23822C259.24 3.67132 260.005 5.61503 260.005 7.64175V370.832C260.005 372.859 259.24 374.803 257.879 376.236C256.517 377.669 254.671 378.474 252.745 378.474ZM7.24708 0.267663C5.40817 0.271208 3.64572 1.04263 2.34661 2.41261C1.04749 3.78258 0.317851 5.63917 0.317854 7.57483V370.832C0.317851 372.768 1.04749 374.625 2.34661 375.995C3.64572 377.365 5.40817 378.136 7.24708 378.139H252.745C254.585 378.136 256.349 377.365 257.65 375.995C258.951 374.626 259.684 372.769 259.687 370.832V7.57483C259.684 5.63794 258.951 3.78138 257.65 2.41179C256.349 1.0422 254.585 0.271201 252.745 0.267663H7.24708Z" fill="#E6E6E6"/>
<path d="M527.766 378.474H282.255C280.331 378.471 278.486 377.664 277.125 376.232C275.764 374.8 274.998 372.858 274.995 370.832V7.57483C275.015 5.56083 275.789 3.63629 277.147 2.21837C278.506 0.800455 280.341 0.0034104 282.255 0H527.766C529.676 0.00696523 531.506 0.805996 532.86 2.22391C534.215 3.64182 534.983 5.56436 535 7.57483V370.832C535 372.854 534.239 374.794 532.883 376.226C531.527 377.659 529.687 378.467 527.766 378.474ZM282.255 0.267663C280.415 0.271201 278.651 1.0422 277.35 2.41179C276.049 3.78138 275.316 5.63794 275.313 7.57483V370.832C275.316 372.769 276.049 374.626 277.35 375.995C278.651 377.365 280.415 378.136 282.255 378.139H527.766C529.606 378.136 531.37 377.365 532.671 375.995C533.972 374.626 534.704 372.769 534.708 370.832V7.57483C534.704 5.63794 533.972 3.78138 532.671 2.41179C531.37 1.0422 529.606 0.271201 527.766 0.267663H282.255Z" fill="#E6E6E6"/>
<path d="M291.396 323.844H263.438V440.585H291.396V323.844Z" fill="#E0E0E0"/>
<path d="M286.082 440.585H291.396V424.686H280.513L286.082 440.585Z" fill="#FAFAFA"/>
<path d="M168.883 323.844H140.924V440.585H168.883V323.844Z" fill="#E0E0E0"/>
<path d="M291.396 323.844H164.254V430.829H291.396V323.844Z" fill="#FAFAFA"/>
<path d="M286.781 329.104V357.409H168.832V329.104H286.743H286.781ZM287.239 328.582H168.374V357.918H287.277V328.582H287.239Z" fill="#E0E0E0"/>
<path d="M169.556 440.585H164.254V424.686H175.125L169.556 440.585Z" fill="#FAFAFA"/>
<path d="M225.015 343.25C225.015 343.835 225.18 344.406 225.489 344.893C225.798 345.379 226.237 345.758 226.75 345.982C227.263 346.206 227.828 346.265 228.373 346.15C228.918 346.036 229.419 345.755 229.812 345.341C230.205 344.927 230.473 344.4 230.581 343.827C230.689 343.253 230.634 342.658 230.421 342.118C230.208 341.577 229.848 341.115 229.386 340.79C228.924 340.465 228.381 340.292 227.825 340.292C227.08 340.292 226.365 340.604 225.838 341.158C225.311 341.713 225.015 342.465 225.015 343.25Z" fill="#E6E6E6"/>
<path d="M286.781 363.177V391.482H168.832V363.177H286.743H286.781ZM287.239 362.668H168.374V392.004H287.277V362.682L287.239 362.668Z" fill="#E0E0E0"/>
<path d="M225.015 377.403C225.015 377.988 225.18 378.56 225.489 379.047C225.798 379.533 226.237 379.912 226.75 380.136C227.263 380.36 227.828 380.418 228.373 380.304C228.918 380.19 229.419 379.908 229.812 379.495C230.205 379.081 230.473 378.554 230.581 377.98C230.689 377.407 230.634 376.812 230.421 376.272C230.208 375.731 229.848 375.269 229.386 374.944C228.924 374.619 228.381 374.446 227.825 374.446C227.08 374.446 226.365 374.757 225.838 375.312C225.311 375.867 225.015 376.619 225.015 377.403Z" fill="#E6E6E6"/>
<path d="M286.781 397.264V425.583H168.832V397.264H286.743H286.781ZM287.239 396.742H168.374V426.091H287.277V396.742H287.239Z" fill="#E0E0E0"/>
<path d="M225.015 411.423C225.018 412.008 225.185 412.578 225.495 413.063C225.805 413.547 226.245 413.924 226.759 414.146C227.272 414.368 227.837 414.425 228.381 414.309C228.925 414.193 229.425 413.911 229.817 413.496C230.208 413.082 230.475 412.555 230.582 411.982C230.689 411.409 230.633 410.815 230.42 410.275C230.207 409.735 229.847 409.274 229.385 408.95C228.923 408.625 228.38 408.452 227.825 408.452C227.455 408.452 227.089 408.529 226.747 408.679C226.405 408.828 226.095 409.047 225.834 409.323C225.573 409.599 225.366 409.927 225.226 410.287C225.085 410.648 225.014 411.034 225.015 411.423Z" fill="#E6E6E6"/>
<path d="M151.807 256.045H123.849V440.598H151.807V256.045Z" fill="#E0E0E0"/>
<path d="M146.493 440.585H151.807V424.686H140.937L146.493 440.585Z" fill="#FAFAFA"/>
<path d="M47.3223 256.045H19.3638V440.598H47.3223V256.045Z" fill="#E0E0E0"/>
<path d="M151.807 256.045H42.6814V430.842H151.807V256.045Z" fill="#FAFAFA"/>
<path d="M147.103 260.97V300.544H47.3857V260.97H147.103ZM147.688 260.368H46.7754V301.12H147.662V260.382L147.688 260.368Z" fill="#E0E0E0"/>
<path d="M147.103 305.375V410.339H99.6029V305.375H147.103ZM147.688 304.76H99.0308V410.955H147.688V304.76Z" fill="#E0E0E0"/>
<path d="M94.8858 305.375V410.339H47.3857V305.375H94.8858ZM95.458 304.76H46.7754V410.955H95.4326V304.76H95.458Z" fill="#E0E0E0"/>
<path d="M47.9959 440.585H42.6814V424.686H53.5647L47.9959 440.585Z" fill="#FAFAFA"/>
<path d="M94.4283 280.777C94.4257 281.366 94.5891 281.941 94.8977 282.432C95.2063 282.922 95.6463 283.305 96.1618 283.532C96.6773 283.759 97.2453 283.82 97.7936 283.706C98.342 283.593 98.8461 283.311 99.2421 282.896C99.6381 282.482 99.9082 281.952 100.018 281.375C100.128 280.799 100.073 280.201 99.8597 279.657C99.6464 279.113 99.2847 278.649 98.8202 278.321C98.3558 277.994 97.8096 277.82 97.2508 277.82C96.5044 277.82 95.7884 278.131 95.2594 278.685C94.7305 279.24 94.4316 279.992 94.4283 280.777Z" fill="#E6E6E6"/>
<path d="M104.498 355.361C104.498 355.949 104.664 356.524 104.974 357.013C105.285 357.502 105.727 357.883 106.243 358.107C106.76 358.332 107.328 358.39 107.876 358.274C108.424 358.158 108.926 357.874 109.321 357.457C109.715 357.04 109.983 356.51 110.09 355.933C110.198 355.355 110.14 354.758 109.924 354.215C109.709 353.672 109.345 353.209 108.879 352.884C108.413 352.56 107.866 352.388 107.308 352.39C106.938 352.39 106.571 352.467 106.229 352.617C105.888 352.766 105.577 352.985 105.316 353.261C105.055 353.537 104.849 353.865 104.708 354.225C104.568 354.586 104.496 354.972 104.498 355.361Z" fill="#E6E6E6"/>
<path d="M84.3714 355.362C84.3739 355.946 84.5408 356.517 84.8511 357.001C85.1613 357.486 85.6011 357.863 86.1147 358.085C86.6284 358.306 87.1929 358.363 87.7371 358.247C88.2813 358.132 88.7808 357.849 89.1725 357.435C89.5642 357.021 89.8306 356.494 89.9379 355.92C90.0453 355.347 89.9889 354.753 89.7759 354.213C89.5629 353.674 89.2027 353.213 88.7409 352.888C88.2791 352.564 87.7364 352.391 87.1812 352.391C86.8111 352.391 86.4447 352.468 86.103 352.617C85.7612 352.767 85.4509 352.986 85.1898 353.262C84.9288 353.538 84.722 353.865 84.5816 354.226C84.4411 354.586 84.3697 354.972 84.3714 355.362Z" fill="#E6E6E6"/>
<path d="M81.1925 204.587H69.4065C70.4926 210.606 71.1766 216.696 71.4535 222.815C71.4535 229.507 62.4773 256.045 75.2677 256.045C88.0582 256.045 79.082 229.574 79.082 222.815C79.3798 216.695 80.0851 210.604 81.1925 204.587Z" fill="#E0E0E0"/>
<path d="M36.3499 231.729V239.758C36.3633 244.063 37.9937 248.187 40.8855 251.231C43.7772 254.275 47.6954 255.991 51.7849 256.005H59.4134C63.5029 255.991 67.421 254.275 70.3128 251.231C73.2045 248.187 74.835 244.063 74.8484 239.758V231.729H36.3499Z" fill="#F5F5F5"/>
<path d="M200.198 306.821C200.198 316.189 210.153 323.844 222.32 323.844H233.305C245.473 323.844 255.428 316.189 255.428 306.821H200.198Z" fill="#E0E0E0"/>
<path d="M491.276 293.09C484.614 298.818 475.409 309.297 466.992 324.045C461.372 333.868 457.99 344.12 456.503 357.744C456.503 342.353 456.592 325.825 456.643 310.22C458.334 306.205 462.199 296.944 464.97 289.637C474.214 265.24 477.685 259.231 485.987 238.193C497.086 210.088 508.453 176.818 505.198 179.481C498.561 184.901 473.133 235.021 470.387 242.194C462.901 261.338 458.273 281.585 456.668 302.217C456.668 287.496 456.77 274.113 456.821 263.727C456.999 229.855 457.545 218.921 457.812 215.548C458.842 213.835 460.05 211.841 460.762 210.771C466.738 201.67 469.039 193.935 474.659 180.364C482.643 161.159 489.509 127.046 487.5 128.759C479.134 135.932 472.548 151.323 463.877 170.956C455.206 190.589 457.685 201.871 455.969 218.626C455.613 221.919 455.333 234.338 455.13 251.535C452.892 233.201 448.671 221.129 440.979 210.155C431.519 196.651 422.365 187.537 415.652 182.773C408.939 178.009 427.247 211.172 435.995 225.599C443.789 238.5 450.972 249.863 455.066 261.064C454.85 284.391 454.748 313.914 454.748 341.363C452.739 328.863 449.459 315.386 445.085 304.961C439.822 292.434 431.735 273.216 425.289 266.699C423.751 265.133 432.028 302.512 437.342 312.442C442.657 322.372 446.56 331.754 449.904 337.388C450.68 338.726 453.273 343.772 454.748 346.689C454.748 380.241 454.926 409.844 455.206 419.922H456.579C456.49 417.325 456.465 400.248 456.503 377.658C459.821 365.399 467.399 351.4 473.654 338.633C480.469 324.808 497.938 287.402 491.276 293.09Z" fill="#E0E0E0"/>
<path d="M475.803 440.585H435.957L432.943 399.472H478.816L475.803 440.585Z" fill="#F0F0F0"/>
<path d="M481.779 404.264H429.968L428.493 390.385H483.266L481.779 404.264Z" fill="#F5F5F5"/>
<path d="M109.406 27.4355H38.1426V109.809H109.406V27.4355Z" fill="#E0E0E0"/>
<path d="M117.123 27.4355H43.5078V109.809H117.123V27.4355Z" fill="#F5F5F5"/>
<path d="M110.957 103.318V33.9263L49.6744 33.9263L49.6744 103.318H110.957Z" fill="white"/>
<path d="M96.0938 86.4816V50.7354H64.5244V86.4816H96.0938Z" fill="#F5F5F5"/>
<path d="M472.764 37.0312H406.561V113.556H472.764V37.0312Z" fill="#E0E0E0"/>
<path d="M479.935 37.0312H411.558V113.556H479.935V37.0312Z" fill="#F5F5F5"/>
<path d="M474.213 107.52V43.0669L417.292 43.0669V107.52H474.213Z" fill="white"/>
<path d="M445.747 93.9896C455.556 93.9896 463.508 85.619 463.508 75.2934C463.508 64.9677 455.556 56.5972 445.747 56.5972C435.937 56.5972 427.985 64.9677 427.985 75.2934C427.985 85.619 435.937 93.9896 445.747 93.9896Z" fill="#F5F5F5"/>
<path d="M183.44 76.5513H130.574V137.659H183.44V76.5513Z" fill="#E0E0E0"/>
<path d="M189.162 76.5513H134.554V137.659H189.162V76.5513Z" fill="#F5F5F5"/>
<path d="M184.584 132.841V81.3691H139.131V132.841H184.584Z" fill="white"/>
<path d="M161.864 94.083L149.43 116.754H174.299L161.864 94.083Z" fill="#F5F5F5"/>
</g>
<path d="M259.577 478.149C402.887 478.149 519.062 471.367 519.062 463C519.062 454.633 402.887 447.85 259.577 447.85C116.268 447.85 0.0925293 454.633 0.0925293 463C0.0925293 471.367 116.268 478.149 259.577 478.149Z" fill="#F5F5F5"/>
<path d="M392.405 124.662L379.129 119.309C379.129 119.309 361.61 151.254 356.592 152.873C349.766 155.068 335.634 161.171 327.256 162.242C326.118 163.58 324.258 167.742 324.432 169.254C335.687 173.015 360.419 168.023 365.719 164.088C377.777 155.162 392.405 124.662 392.405 124.662Z" fill="#E58A7B"/>
<path d="M396.487 117.395C398.963 126.535 385.553 144.924 385.553 144.924L367.981 135.074C367.981 135.074 371.273 127.512 375.288 119.817C381.725 107.384 393.663 106.969 396.487 117.395Z" fill="#407BFF"/>
<path opacity="0.2" d="M396.487 117.395C398.963 126.535 385.553 144.924 385.553 144.924L367.981 135.074C367.981 135.074 371.273 127.512 375.288 119.817C381.725 107.384 393.663 106.969 396.487 117.395Z" fill="black"/>
<path opacity="0.2" d="M374.953 139.008L381.872 142.889L383.09 121.65C379.062 124.742 376.225 134.057 374.953 139.008Z" fill="black"/>
<path d="M384.924 110.516C384.924 110.516 371.246 140.949 379.222 197.613H433.116C433.973 189.342 431.135 148.979 441.4 110.007C435.488 108.852 429.506 108.087 423.494 107.719C415.867 107.277 408.222 107.277 400.595 107.719C395.308 108.255 390.07 109.191 384.924 110.516Z" fill="#407BFF"/>
<path opacity="0.2" d="M384.924 110.516C384.924 110.516 371.246 140.949 379.222 197.613H433.116C433.973 189.342 431.135 148.979 441.4 110.007C435.488 108.852 429.506 108.087 423.494 107.719C415.867 107.277 408.222 107.277 400.595 107.719C395.308 108.255 390.07 109.191 384.924 110.516Z" fill="black"/>
<g style="mix-blend-mode:multiply">
<path d="M372.424 464.204C372.344 465.65 392.78 466.814 418.06 466.814C443.341 466.814 463.924 465.65 464.004 464.204C464.085 462.759 443.662 461.608 418.368 461.608C393.074 461.608 372.518 462.772 372.424 464.204Z" fill="#E8ECF1"/>
</g>
<path d="M408.398 426.227L398.84 429.927L407.073 451.198L416.632 447.498L408.398 426.227Z" fill="#E58A7B"/>
<path d="M451.023 453.913H440.945L437.251 430.586H447.329L451.023 453.913Z" fill="#E58A7B"/>
<path d="M440.249 452.749H451.572C451.768 452.749 451.958 452.819 452.107 452.947C452.257 453.074 452.356 453.251 452.388 453.444L453.847 462.398C453.877 462.622 453.859 462.851 453.794 463.068C453.729 463.285 453.617 463.485 453.467 463.656C453.317 463.826 453.133 463.962 452.926 464.054C452.719 464.146 452.494 464.193 452.267 464.191C448.319 464.124 446.419 463.883 441.441 463.883C438.376 463.883 432.072 464.205 427.817 464.205C423.561 464.205 423.28 460.029 425.033 459.641C432.902 457.941 435.953 455.626 438.577 453.378C439.039 452.971 439.634 452.748 440.249 452.749Z" fill="#263238"/>
<path d="M406.792 449.296L417.498 446.164C417.689 446.11 417.893 446.123 418.076 446.201C418.258 446.279 418.409 446.417 418.502 446.592L422.517 454.622C422.61 454.826 422.658 455.047 422.656 455.271C422.655 455.496 422.605 455.717 422.509 455.919C422.414 456.122 422.275 456.301 422.103 456.445C421.931 456.588 421.73 456.692 421.513 456.75C417.619 457.821 415.009 458.476 410.137 459.895C406.778 460.872 403.352 462.465 400.033 463.522C397.731 464.258 392.325 464.285 389.527 464.285C385.392 464.285 384.469 459.922 386.249 459.721C390.732 459.226 391.334 459.453 393.81 458.209C397.861 456.438 401.533 453.902 404.624 450.741C405.206 450.077 405.954 449.578 406.792 449.296Z" fill="#263238"/>
<path d="M328.942 162.188L317.861 157.544L313.297 169.83C317.839 170.521 322.46 170.521 327.002 169.83L328.942 162.188Z" fill="#E58A7B"/>
<path d="M309.617 157.223L309.323 165.386L313.297 169.803L317.861 157.517L309.617 157.223Z" fill="#E58A7B"/>
<path d="M409.71 428.033L400.121 431.735L404.368 442.734L413.956 439.032L409.71 428.033Z" fill="#CF6F64"/>
<path d="M447.329 430.586H437.251L439.165 442.617H449.243L447.329 430.586Z" fill="#CF6F64"/>
<path opacity="0.2" d="M377.509 182.29C377.71 184.712 377.938 187.188 378.232 189.731L418.301 176.722C424.558 174.868 429.997 170.935 433.718 165.574C433.879 162.001 434.08 158.24 434.387 154.319C434.521 152.419 434.682 150.465 434.856 148.484C435.03 146.503 435.271 144.308 435.525 142.194L377.509 182.29Z" fill="black"/>
<path d="M390.598 138.393L389.26 138.232C390.049 131.541 395.041 126.268 400.301 126.401V127.74C395.697 127.646 391.307 132.397 390.598 138.393Z" fill="white"/>
<path d="M397.731 150.746H397.504V149.407C402.107 149.581 406.43 144.777 407.14 138.794L408.478 138.955C407.769 145.499 402.937 150.746 397.731 150.746Z" fill="white"/>
<path d="M422.744 81.9297C420.857 89.3038 418.636 102.807 423.494 107.719C423.494 107.719 420.094 115.2 406.403 115.2C393.89 115.2 400.595 107.719 400.595 107.719C408.92 105.765 409.067 99.6891 407.969 93.9343L422.744 81.9297Z" fill="#E58A7B"/>
<path d="M416.722 86.8276L407.983 93.9341C408.254 95.2565 408.41 96.5997 408.451 97.949C411.007 100.492 416.133 94.0545 416.655 90.7623C416.92 89.4661 416.943 88.132 416.722 86.8276Z" fill="#CF6F64"/>
<path d="M392.953 81.8356C393.561 82.8896 394.38 83.8068 395.359 84.5299C396.338 85.2529 397.455 85.7663 398.641 86.0379C401.853 86.7472 403.459 83.7896 402.576 80.8185C401.786 78.1419 399.15 74.5418 395.884 75.1575C395.185 75.3016 394.53 75.6111 393.975 76.0603C393.42 76.5095 392.98 77.0852 392.693 77.7391C392.406 78.3931 392.28 79.1063 392.325 79.819C392.37 80.5318 392.586 81.2233 392.953 81.8356Z" fill="#CF6F64"/>
<path d="M398.267 58.2417C393.261 60.5302 391.495 80.4175 397.785 83.3618C404.075 86.3061 407.742 53.8922 398.267 58.2417Z" fill="#263238"/>
<path d="M424.27 70.8347C423.065 80.8185 422.932 86.6937 417.578 91.806C415.919 93.5025 413.824 94.7076 411.523 95.2882C409.223 95.8689 406.807 95.8024 404.541 95.0963C402.276 94.3901 400.25 93.0717 398.687 91.2867C397.124 89.5016 396.085 87.3192 395.684 84.9806C394.064 76.0139 396.299 61.1988 406.31 57.2241C408.413 56.2963 410.726 55.9481 413.009 56.2154C415.293 56.4826 417.463 57.3558 419.295 58.7442C421.127 60.1327 422.555 61.9859 423.429 64.1118C424.304 66.2377 424.594 68.5589 424.27 70.8347Z" fill="#E58A7B"/>
<path d="M407.822 63.4073C415.236 61.5203 420.683 60.2355 418.729 66.4051C416.146 74.6491 413.042 82.6254 417.204 82.9868C419.746 83.2143 430.988 78.4499 429.556 73.6186C428.312 69.4163 433.571 68.2654 434.508 66.1374C437.974 58.4288 428.057 59.4459 429.824 54.7618C431.591 50.0777 421.794 42.5297 416.441 46.2903C407.728 52.3662 392.78 52.2726 400.635 42.2754C406.27 35.1422 396.219 36.6009 396.219 36.6009C396.219 36.6009 402.295 40.201 392.07 45.7684C381.257 51.7105 391.174 67.6765 407.822 63.4073Z" fill="#263238"/>
<path d="M428.204 81.8356C426.741 83.9535 424.542 85.4514 422.035 86.0379C418.729 86.7472 417.458 83.7896 418.702 80.8185C419.813 78.1419 422.865 74.5418 426.023 75.1575C429.181 75.7731 429.904 79.2125 428.204 81.8356Z" fill="#E58A7B"/>
<path d="M379.222 197.613C379.222 197.613 370.175 278.581 369.466 309.308C368.743 341.267 400.127 440.984 400.127 440.984L416.187 434.293C416.187 434.293 397.45 343.181 400.127 311.797C402.964 277.577 414.688 197.666 414.688 197.666L379.222 197.613Z" fill="#407BFF"/>
<path opacity="0.2" d="M401.706 219.842C394.493 234.804 399.351 264.395 403.258 281.926C404.744 269.547 406.511 256.11 408.183 243.677C408.023 224.566 406.537 209.805 401.706 219.842Z" fill="black"/>
<path d="M415.477 428.994C415.558 428.994 417.378 434.106 417.378 434.106L398.855 441.895L395.938 436.461L415.477 428.994Z" fill="#407BFF"/>
<path d="M398.347 197.613C398.347 197.613 405.266 274.619 409.843 303.46C414.875 335.057 434.602 440.289 434.602 440.289H453.057C453.057 440.289 442.003 337.613 439.915 306.324C437.64 272.384 433.116 197.613 433.116 197.613H398.347Z" fill="#407BFF"/>
<path d="M453.338 435.484C453.418 435.484 453.954 440.637 453.954 440.637H433.665L432.219 434.721L453.338 435.484Z" fill="#407BFF"/>
<path opacity="0.2" d="M446.272 429.381C446.23 429.382 446.189 429.367 446.157 429.34C446.125 429.313 446.104 429.276 446.098 429.234C445.991 428.297 436.02 335.553 434.147 307.448C432.113 276.961 428.017 209.337 427.977 208.654C427.975 208.632 427.978 208.609 427.985 208.588C427.993 208.567 428.004 208.548 428.019 208.532C428.034 208.515 428.053 208.502 428.073 208.493C428.093 208.484 428.115 208.48 428.138 208.48C428.182 208.48 428.224 208.496 428.256 208.526C428.289 208.556 428.308 208.597 428.312 208.641C428.312 209.323 432.447 276.894 434.481 307.435C436.355 335.539 446.325 428.217 446.419 429.221C446.423 429.243 446.422 429.266 446.416 429.287C446.411 429.309 446.401 429.33 446.387 429.347C446.373 429.365 446.356 429.379 446.336 429.39C446.316 429.4 446.294 429.407 446.272 429.408V429.381Z" fill="black"/>
<path d="M408.96 73.6186C408.96 74.435 408.451 75.0908 407.916 75.0908C407.381 75.0908 406.992 74.435 407.046 73.6186C407.099 72.8023 407.555 72.1465 408.09 72.1465C408.625 72.1465 409.013 72.8156 408.96 73.6186Z" fill="#263238"/>
<path d="M399.779 73.6186C399.779 74.435 399.257 75.0908 398.735 75.0908C398.213 75.0908 397.811 74.435 397.852 73.6186C397.892 72.8023 398.374 72.1465 398.909 72.1465C399.444 72.1465 399.832 72.8156 399.779 73.6186Z" fill="#263238"/>
<path d="M402.67 74.0337C401.552 76.5266 400.113 78.8618 398.387 80.9795C399.725 82.3178 402.228 81.7022 402.228 81.7022L402.67 74.0337Z" fill="#DF5753"/>
<path d="M402.911 85.1148C402.88 85.1148 402.849 85.1086 402.82 85.0963C402.792 85.084 402.766 85.066 402.745 85.0435C402.723 85.0209 402.707 84.9942 402.696 84.9651C402.686 84.9359 402.681 84.9049 402.683 84.8739C402.686 84.8088 402.715 84.7475 402.762 84.7027C402.809 84.6578 402.872 84.6329 402.937 84.633C403.961 84.6401 404.973 84.4178 405.899 83.9824C406.826 83.547 407.643 82.9096 408.291 82.117C408.337 82.0765 408.396 82.0542 408.458 82.0542C408.519 82.0542 408.579 82.0765 408.625 82.117C408.668 82.1619 408.693 82.2219 408.693 82.2843C408.693 82.3467 408.668 82.4066 408.625 82.4516C407.932 83.2939 407.059 83.9704 406.07 84.4312C405.081 84.8921 404.001 85.1256 402.911 85.1148Z" fill="#263238"/>
<path d="M410.592 71.1559C410.528 71.1888 410.457 71.206 410.385 71.206C410.313 71.206 410.242 71.1888 410.178 71.1559C409.677 70.8323 409.107 70.6309 408.514 70.5682C407.921 70.5054 407.322 70.583 406.765 70.7946C406.711 70.8218 406.651 70.8378 406.591 70.8417C406.53 70.8456 406.469 70.8373 406.412 70.8174C406.355 70.7974 406.302 70.7662 406.257 70.7255C406.212 70.6848 406.175 70.6355 406.149 70.5805C406.1 70.4614 406.098 70.3276 406.146 70.2076C406.193 70.0876 406.286 69.9909 406.404 69.9381C407.103 69.6523 407.862 69.5396 408.614 69.6095C409.367 69.6794 410.091 69.9298 410.726 70.3396C410.778 70.3744 410.821 70.4192 410.855 70.4711C410.889 70.5231 410.912 70.5813 410.924 70.6423C410.935 70.7033 410.934 70.7659 410.921 70.8265C410.907 70.8871 410.882 70.9445 410.847 70.9953C410.779 71.0721 410.691 71.1278 410.592 71.1559Z" fill="#263238"/>
<path d="M396.232 68.4794C396.161 68.4622 396.096 68.4251 396.045 68.3724C396 68.3288 395.965 68.2767 395.941 68.2193C395.917 68.1618 395.904 68.1001 395.904 68.0378C395.904 67.9755 395.917 67.9138 395.941 67.8563C395.965 67.7989 396 67.7468 396.045 67.7032C396.558 67.1279 397.197 66.6788 397.912 66.391C398.627 66.1031 399.398 65.9843 400.167 66.0437C400.228 66.0532 400.287 66.0753 400.34 66.1085C400.393 66.1417 400.438 66.1854 400.473 66.2368C400.508 66.2882 400.533 66.3463 400.544 66.4075C400.556 66.4687 400.555 66.5316 400.542 66.5924C400.513 66.7163 400.44 66.8255 400.336 66.8995C400.233 66.9734 400.106 67.007 399.98 66.9939C399.371 66.9556 398.763 67.0562 398.199 67.2881C397.636 67.5199 397.132 67.877 396.727 68.3322C396.666 68.4 396.588 68.4495 396.501 68.4755C396.413 68.5015 396.32 68.5028 396.232 68.4794Z" fill="#263238"/>
<path d="M446.579 123.176L432.661 119.469C432.661 119.469 419.01 153.074 414.179 155.256C407.621 158.253 391.013 168.639 383.947 173.55C383.558 175.223 383.866 179.653 384.75 180.871C396.794 178.676 419.853 169.803 424.671 165.293C435.659 155.001 446.579 123.176 446.579 123.176Z" fill="#E58A7B"/>
<path d="M436.863 454.515C436.184 454.569 435.508 454.384 434.95 453.993C434.777 453.837 434.648 453.639 434.576 453.419C434.503 453.198 434.489 452.963 434.535 452.735C434.543 452.593 434.59 452.455 434.67 452.338C434.75 452.22 434.861 452.126 434.99 452.066C436.114 451.49 439.259 453.484 439.62 453.712C439.66 453.736 439.691 453.773 439.708 453.817C439.725 453.86 439.727 453.908 439.714 453.953C439.703 453.999 439.679 454.042 439.647 454.078C439.614 454.113 439.572 454.139 439.527 454.153C438.654 454.368 437.761 454.489 436.863 454.515ZM435.525 452.427C435.424 452.405 435.319 452.405 435.217 452.427C435.166 452.453 435.123 452.494 435.095 452.544C435.066 452.593 435.053 452.651 435.057 452.708C435.021 452.864 435.027 453.026 435.074 453.179C435.121 453.332 435.207 453.469 435.324 453.578C435.846 454.046 437.158 454.1 438.884 453.765C437.856 453.088 436.699 452.633 435.485 452.427H435.525Z" fill="#407BFF"/>
<path d="M439.46 454.154C439.425 454.165 439.388 454.165 439.353 454.154C438.349 453.592 436.462 451.383 436.743 450.259C436.785 450.081 436.886 449.922 437.029 449.808C437.172 449.694 437.35 449.631 437.533 449.63C437.712 449.606 437.895 449.621 438.068 449.674C438.241 449.728 438.401 449.817 438.536 449.938C439.647 450.888 439.714 453.806 439.714 453.953C439.721 453.997 439.712 454.042 439.69 454.081C439.669 454.119 439.635 454.15 439.594 454.167C439.549 454.176 439.502 454.172 439.46 454.154ZM437.666 450.072H437.573C437.265 450.072 437.225 450.246 437.211 450.313C437.051 450.969 438.242 452.641 439.232 453.431C439.228 452.3 438.878 451.198 438.229 450.273C438.073 450.137 437.872 450.065 437.666 450.072Z" fill="#407BFF"/>
<path d="M401.331 452.842C400.512 453.127 399.621 453.127 398.802 452.842C398.616 452.741 398.458 452.595 398.344 452.417C398.229 452.24 398.161 452.036 398.146 451.825C398.129 451.692 398.146 451.558 398.195 451.434C398.244 451.31 398.324 451.2 398.427 451.115C399.498 450.152 403.874 451.115 404.369 451.303C404.416 451.315 404.458 451.343 404.487 451.382C404.516 451.421 404.531 451.468 404.53 451.517C404.532 451.567 404.519 451.617 404.493 451.66C404.466 451.703 404.428 451.737 404.383 451.758C403.397 452.203 402.376 452.565 401.331 452.842ZM399.15 451.249C398.997 451.28 398.854 451.349 398.735 451.45C398.692 451.482 398.66 451.525 398.641 451.575C398.622 451.625 398.617 451.679 398.628 451.731C398.637 451.872 398.68 452.008 398.755 452.127C398.83 452.246 398.933 452.345 399.056 452.414C399.765 452.788 401.411 452.494 403.539 451.597C402.106 451.236 400.622 451.118 399.15 451.249Z" fill="#407BFF"/>
<path d="M404.342 451.758H404.235C402.897 451.517 400.22 449.978 400.14 448.827C400.14 448.56 400.261 448.185 400.903 447.971C401.12 447.894 401.35 447.861 401.58 447.875C401.81 447.888 402.035 447.948 402.241 448.051C403.687 448.76 404.449 451.33 404.49 451.45C404.499 451.491 404.498 451.533 404.486 451.573C404.474 451.613 404.453 451.649 404.423 451.678C404.403 451.711 404.375 451.738 404.342 451.758ZM401.171 448.372H401.037C400.622 448.52 400.622 448.694 400.622 448.747C400.622 449.443 402.562 450.714 403.914 451.143C403.603 450.068 402.944 449.126 402.041 448.466C401.772 448.329 401.462 448.296 401.171 448.372Z" fill="#407BFF"/>
<path d="M385.084 172.761L371.126 179.185L369.506 183.2L374.659 186.666C374.659 186.666 384.295 185.622 387.038 179.426L385.084 172.761Z" fill="#E58A7B"/>
<path d="M385.673 181.098C385.361 178.416 384.476 175.833 383.077 173.523L385.285 171.864C386.946 174.525 388.006 177.516 388.39 180.63L385.673 181.098Z" fill="#263238"/>
<path d="M388.055 174.661C388.35 175.125 388.495 175.669 388.47 176.218C388.446 176.768 388.252 177.296 387.916 177.732C387.58 178.167 387.118 178.489 386.593 178.652C386.068 178.816 385.505 178.814 384.982 178.647C384.458 178.479 383.998 178.154 383.665 177.716C383.333 177.279 383.143 176.749 383.122 176.199C383.101 175.65 383.25 175.107 383.548 174.645C383.847 174.183 384.28 173.824 384.79 173.617C385.362 173.326 386.026 173.272 386.637 173.467C387.249 173.663 387.758 174.092 388.055 174.661Z" fill="#263238"/>
<path d="M361.69 184.377L363.551 186.251L376.077 180.898L371.126 179.185L361.69 184.377Z" fill="#E58A7B"/>
<path opacity="0.2" d="M415.477 428.994C415.558 428.994 417.378 434.106 417.378 434.106L398.855 441.895L395.938 436.461L415.477 428.994Z" fill="black"/>
<path opacity="0.2" d="M453.338 435.484C453.418 435.484 453.954 440.637 453.954 440.637H433.665L432.219 434.721L453.338 435.484Z" fill="black"/>
<path d="M450.206 119.322C453.887 131.193 439.5 147.426 439.5 147.426L419.626 139.316C421.982 132.455 424.698 125.723 427.763 119.148C433.866 105.992 446.486 107.344 450.206 119.322Z" fill="#407BFF"/>
<path opacity="0.2" d="M450.206 119.322C453.887 131.193 439.5 147.426 439.5 147.426L419.626 139.316C421.982 132.455 424.698 125.723 427.763 119.148C433.866 105.992 446.486 107.344 450.206 119.322Z" fill="black"/>
<path d="M252.725 0.38623H244.174V1.76469H252.725V0.38623Z" fill="#407BFF"/>
<path d="M363.428 54.9442L362.393 77.9131L363.77 77.9751L364.805 55.0063L363.428 54.9442Z" fill="#407BFF"/>
<path d="M360.767 6.56934H202.846L188.152 335.419H346.072L360.767 6.56934Z" fill="#407BFF"/>
<path opacity="0.56" d="M356.056 11.0928H198.136L183.441 339.942H341.361L356.056 11.0928Z" fill="#FAFAFA"/>
<path opacity="0.07" d="M351.345 15.603H193.425L178.717 344.453H336.637L351.345 15.603Z" fill="#407BFF"/>
<path d="M333.372 159.03H198.577L197.453 184.19H332.248L333.372 159.03Z" fill="white"/>
<path d="M272.706 140.668H199.394L198.898 151.923H272.211L272.706 140.668Z" fill="#407BFF"/>
<path d="M330.334 226.936H195.539L194.415 252.096H329.21L330.334 226.936Z" fill="white"/>
<path opacity="0.47" d="M305.615 286.075H214.972L213.62 316.227H304.264L305.615 286.075Z" fill="#407BFF"/>
<path d="M299.553 320.912H208.909C208.87 320.922 208.828 320.922 208.789 320.912C208.775 320.873 208.775 320.83 208.789 320.791L210.127 290.626C210.127 290.605 210.131 290.585 210.139 290.566C210.148 290.547 210.16 290.53 210.175 290.516C210.19 290.503 210.208 290.492 210.227 290.486C210.247 290.479 210.267 290.476 210.288 290.478H300.931C300.948 290.47 300.966 290.466 300.985 290.466C301.003 290.466 301.022 290.47 301.038 290.478C301.048 290.495 301.053 290.513 301.053 290.532C301.053 290.551 301.048 290.569 301.038 290.585L299.727 320.818C299.711 320.849 299.686 320.875 299.654 320.892C299.623 320.909 299.588 320.915 299.553 320.912ZM209.07 320.59H299.392L300.731 290.746H210.408L209.07 320.59Z" fill="white"/>
<path d="M256.874 208.574H196.356L195.861 219.842H256.366L256.874 208.574Z" fill="#407BFF"/>
<path d="M303.889 77.7538C303.543 85.0762 300.939 92.112 296.435 97.8953C293.1 102.264 288.809 105.81 283.891 108.262C278.973 110.714 273.558 112.007 268.062 112.041C263.621 112.075 259.221 111.199 255.131 109.468C251.041 107.737 247.349 105.186 244.283 101.974C241.216 98.762 238.839 94.956 237.299 90.7905C235.759 86.625 235.088 82.1884 235.327 77.7538C235.798 68.5516 239.766 59.8768 246.421 53.5034C253.075 47.13 261.913 43.5395 271.127 43.4663C275.571 43.4248 279.977 44.2952 284.072 46.0235C288.166 47.7519 291.863 50.3015 294.934 53.5149C298.004 56.7283 300.383 60.5372 301.923 64.7063C303.463 68.8753 304.132 73.3159 303.889 77.7538Z" fill="white"/>
<path d="M307.114 50.6399C307.027 52.5869 306.335 54.4582 305.134 55.9932C304.245 57.1534 303.103 58.0954 301.795 58.7471C300.487 59.3989 299.047 59.7432 297.586 59.7538C296.17 59.7624 294.773 59.4242 293.518 58.7686C292.263 58.1131 291.187 57.1602 290.385 55.9932C289.324 54.4162 288.798 52.5391 288.887 50.6399C289.016 48.1967 290.072 45.8949 291.841 44.2038C293.609 42.5128 295.955 41.5599 298.402 41.5394C299.582 41.5286 300.752 41.7597 301.84 42.2183C302.927 42.6768 303.91 43.3533 304.726 44.2059C305.542 45.0585 306.175 46.0692 306.586 47.1757C306.997 48.2823 307.177 49.4612 307.114 50.6399Z" fill="#407BFF"/>
<path d="M213.098 171.61C213.034 172.688 212.563 173.702 211.781 174.447C210.998 175.192 209.963 175.613 208.882 175.625C208.361 175.631 207.843 175.53 207.362 175.328C206.881 175.127 206.447 174.829 206.085 174.452C205.724 174.076 205.444 173.63 205.262 173.141C205.08 172.652 205.001 172.131 205.028 171.61C205.086 170.529 205.555 169.511 206.339 168.765C207.122 168.019 208.161 167.6 209.244 167.595C209.765 167.591 210.281 167.693 210.761 167.895C211.242 168.097 211.675 168.396 212.036 168.772C212.397 169.147 212.677 169.593 212.86 170.081C213.043 170.569 213.124 171.089 213.098 171.61Z" fill="#263238"/>
<path d="M231.138 171.609C231.077 172.689 230.607 173.705 229.824 174.45C229.041 175.196 228.004 175.616 226.923 175.624C226.402 175.629 225.886 175.527 225.407 175.324C224.927 175.122 224.494 174.823 224.135 174.447C223.775 174.071 223.496 173.625 223.315 173.137C223.134 172.649 223.054 172.129 223.082 171.609C223.14 170.531 223.607 169.515 224.387 168.769C225.168 168.023 226.204 167.603 227.284 167.595C227.806 167.588 228.323 167.689 228.804 167.891C229.285 168.092 229.72 168.391 230.081 168.767C230.442 169.143 230.722 169.59 230.904 170.079C231.086 170.568 231.166 171.089 231.138 171.609Z" fill="#263238"/>
<path d="M249.192 171.609C249.131 172.689 248.661 173.705 247.878 174.45C247.095 175.196 246.058 175.616 244.977 175.624C244.456 175.629 243.939 175.526 243.459 175.324C242.979 175.122 242.545 174.824 242.184 174.448C241.823 174.072 241.543 173.626 241.36 173.138C241.178 172.65 241.097 172.13 241.122 171.609C241.183 170.53 241.653 169.514 242.436 168.768C243.219 168.023 244.257 167.603 245.338 167.595C245.86 167.588 246.377 167.689 246.858 167.891C247.339 168.092 247.774 168.391 248.135 168.767C248.496 169.143 248.776 169.59 248.958 170.079C249.14 170.568 249.22 171.089 249.192 171.609Z" fill="#263238"/>
<path d="M210.06 239.516C209.996 240.594 209.525 241.608 208.743 242.353C207.96 243.098 206.925 243.519 205.844 243.53C205.323 243.535 204.807 243.433 204.327 243.23C203.846 243.028 203.413 242.73 203.052 242.354C202.691 241.978 202.411 241.532 202.228 241.044C202.045 240.556 201.964 240.036 201.99 239.516C202.051 238.436 202.521 237.42 203.304 236.674C204.087 235.929 205.124 235.509 206.206 235.501C206.727 235.496 207.243 235.599 207.723 235.801C208.203 236.003 208.637 236.301 208.998 236.677C209.359 237.053 209.639 237.499 209.822 237.987C210.004 238.475 210.085 238.995 210.06 239.516Z" fill="#263238"/>
<path d="M228.1 239.516C228.039 240.593 227.572 241.607 226.791 242.352C226.011 243.097 224.977 243.519 223.898 243.53C223.377 243.537 222.859 243.436 222.378 243.234C221.897 243.033 221.463 242.734 221.101 242.358C220.74 241.982 220.46 241.535 220.278 241.046C220.096 240.557 220.016 240.036 220.044 239.516C220.105 238.436 220.575 237.42 221.358 236.675C222.141 235.929 223.178 235.509 224.26 235.501C224.78 235.496 225.296 235.598 225.775 235.801C226.255 236.003 226.688 236.302 227.048 236.678C227.407 237.054 227.687 237.5 227.868 237.988C228.049 238.476 228.128 238.996 228.1 239.516Z" fill="#263238"/>
<path d="M246.194 239.516C246.133 240.595 245.663 241.611 244.88 242.357C244.097 243.102 243.06 243.522 241.979 243.531C241.458 243.533 240.943 243.429 240.463 243.226C239.984 243.023 239.551 242.725 239.191 242.35C238.83 241.974 238.55 241.529 238.366 241.042C238.183 240.555 238.101 240.036 238.124 239.516C238.189 238.437 238.659 237.423 239.442 236.678C240.224 235.933 241.26 235.512 242.34 235.501C242.862 235.495 243.379 235.595 243.86 235.797C244.341 235.999 244.776 236.297 245.137 236.673C245.498 237.05 245.778 237.496 245.96 237.985C246.142 238.474 246.222 238.995 246.194 239.516Z" fill="#263238"/>
<path d="M264.208 239.516C264.144 240.594 263.673 241.608 262.891 242.353C262.108 243.098 261.073 243.519 259.992 243.53C259.472 243.533 258.956 243.429 258.477 243.226C257.998 243.023 257.565 242.725 257.204 242.35C256.844 241.974 256.563 241.529 256.38 241.042C256.197 240.555 256.114 240.036 256.138 239.516C256.202 238.437 256.673 237.423 257.455 236.678C258.238 235.933 259.273 235.512 260.354 235.501C260.875 235.496 261.391 235.599 261.871 235.801C262.352 236.003 262.785 236.301 263.146 236.677C263.507 237.053 263.787 237.499 263.97 237.987C264.153 238.475 264.234 238.995 264.208 239.516Z" fill="#263238"/>
<path d="M282.329 239.516C282.264 240.594 281.794 241.608 281.011 242.353C280.229 243.098 279.193 243.519 278.113 243.53C277.591 243.537 277.074 243.436 276.593 243.234C276.112 243.033 275.677 242.734 275.316 242.358C274.955 241.982 274.675 241.535 274.493 241.046C274.311 240.557 274.231 240.036 274.259 239.516C274.32 238.436 274.79 237.42 275.573 236.674C276.356 235.929 277.393 235.509 278.474 235.501C278.995 235.496 279.512 235.599 279.992 235.801C280.472 236.003 280.906 236.301 281.267 236.677C281.628 237.053 281.908 237.499 282.091 237.987C282.273 238.475 282.354 238.995 282.329 239.516Z" fill="#263238"/>
<path d="M279.59 75.9681C285.191 70.4904 285.489 61.7101 280.254 56.3569C275.019 51.0038 266.234 51.1048 260.632 56.5826C255.031 62.0604 254.734 70.8406 259.969 76.1938C265.204 81.5469 273.988 81.4459 279.59 75.9681Z" fill="#407BFF"/>
<path d="M296.435 97.8954C293.1 102.264 288.809 105.81 283.891 108.262C278.973 110.715 273.558 112.007 268.062 112.041C262.733 112.087 257.475 110.82 252.751 108.353C248.027 105.886 243.983 102.295 240.975 97.8954C247.479 91.418 257.771 87.189 269.173 87.189C280.576 87.189 290.506 91.418 296.435 97.8954Z" fill="#407BFF"/>
<path opacity="0.1" d="M279.59 75.9681C285.191 70.4904 285.489 61.7101 280.254 56.3569C275.019 51.0038 266.234 51.1048 260.632 56.5826C255.031 62.0604 254.734 70.8406 259.969 76.1938C265.204 81.5469 273.988 81.4459 279.59 75.9681Z" fill="white"/>
<path opacity="0.1" d="M296.435 97.8954C293.1 102.264 288.809 105.81 283.891 108.262C278.973 110.715 273.558 112.007 268.062 112.041C262.733 112.087 257.475 110.82 252.751 108.353C248.027 105.886 243.983 102.295 240.975 97.8954C247.479 91.418 257.771 87.189 269.173 87.189C280.576 87.189 290.506 91.418 296.435 97.8954Z" fill="white"/>
<path d="M99.5289 190.253C98.2575 193.036 96.9192 196.101 95.7549 199.072C94.5905 202.043 93.3994 205.108 92.3689 208.159C90.2649 214.173 88.6624 220.35 87.5778 226.628L87.2834 228.595C87.2553 228.933 87.287 229.273 87.377 229.599C87.6929 230.708 88.1903 231.757 88.8492 232.704C90.5679 235.154 92.5616 237.399 94.7913 239.396C97.1421 241.582 99.6081 243.642 102.179 245.565C104.748 247.546 107.452 249.473 110.115 251.293L107.612 255.991C101.253 253.22 95.2167 249.76 89.612 245.672C86.6219 243.491 83.9233 240.937 81.5822 238.071C80.1944 236.364 79.1123 234.431 78.3836 232.356C77.9599 231.06 77.7431 229.705 77.7412 228.341C77.7412 228.02 77.7412 227.551 77.7412 227.324V226.668L77.8751 225.33C78.6423 218.357 80.1084 211.48 82.2513 204.8C83.2952 201.508 84.406 198.229 85.6774 195.031C86.9488 191.832 88.2603 188.7 89.8797 185.448L99.5289 190.253Z" fill="#E58A7B"/>
<path d="M108.228 250.463L117.69 245.672L115.241 256.057C115.241 256.057 108.75 257.877 105.739 254.719L108.228 250.463Z" fill="#E58A7B"/>
<path d="M126.349 247.372L123.833 255.963L115.241 256.057L117.69 245.672L126.349 247.372Z" fill="#E58A7B"/>
<path d="M139.705 140.146C140.211 142.001 140.916 143.796 141.806 145.5C141.546 145.795 141.211 146.014 140.836 146.134C140.462 146.254 140.061 146.271 139.678 146.182L139.705 140.146Z" fill="#DF5753"/>
<path d="M139.424 140.227C139.978 140.227 140.428 139.538 140.428 138.688C140.428 137.838 139.978 137.148 139.424 137.148C138.87 137.148 138.42 137.838 138.42 138.688C138.42 139.538 138.87 140.227 139.424 140.227Z" fill="#263238"/>
<path d="M139.129 137.202L141.164 136.626C141.164 136.626 140.173 138.206 139.129 137.202Z" fill="#263238"/>
<path d="M113.568 149.97C114.786 156.193 116.004 167.609 111.641 171.771C111.641 171.771 113.354 178.088 124.93 178.088C137.657 178.088 131.006 171.771 131.006 171.771C124.06 170.111 124.234 164.959 125.452 160.114L113.568 149.97Z" fill="#E58A7B"/>
<path d="M110.182 135.783C110.824 146.182 110.878 150.598 116.124 155.938C124.033 163.968 136.667 160.917 139.143 150.585C141.378 141.217 139.959 125.8 129.775 121.664C127.539 120.743 125.106 120.408 122.704 120.69C120.303 120.972 118.013 121.861 116.052 123.275C114.09 124.688 112.522 126.579 111.494 128.768C110.467 130.957 110.016 133.371 110.182 135.783Z" fill="#E58A7B"/>
<path d="M111.212 124.086C105.993 125.987 99.0337 124.568 101.764 140.668C104.655 157.718 100.211 163.326 100.211 163.326C100.211 163.326 120.005 167.541 140.214 163.071C140.214 163.071 134.044 152.285 135.77 144.335C137.979 134.298 136.239 130.59 136.239 130.59C136.239 130.59 118.546 121.41 111.212 124.086Z" fill="#263238"/>
<path d="M133.294 141.203C133.3 143.181 133.866 145.116 134.927 146.784C136.346 148.952 138.019 148.122 138.434 145.821C138.808 143.8 138.527 140.226 136.721 138.835C134.914 137.443 133.321 138.808 133.294 141.203Z" fill="#E58A7B"/>
<path d="M106.675 125.84C105.176 121.624 112.323 115.133 127.446 117.81C142.569 120.486 143.225 133.08 143.225 133.08L140.173 129.44L140.307 133.267L124.769 136.252L106.675 125.84Z" fill="#263238"/>
<path d="M107.96 172.48C107.871 171.869 108.024 171.247 108.386 170.747C108.749 170.247 109.292 169.908 109.901 169.803C114.612 169.027 125.318 167.448 130.698 168.197C134.713 168.759 135.757 171.088 135.931 173.002C135.958 173.337 135.913 173.674 135.799 173.99C135.686 174.307 135.505 174.595 135.271 174.836C135.036 175.077 134.753 175.265 134.44 175.387C134.126 175.509 133.791 175.563 133.455 175.544L110.195 174.501C109.647 174.473 109.125 174.257 108.718 173.888C108.31 173.52 108.043 173.023 107.96 172.48Z" fill="#407BFF"/>
<path opacity="0.6" d="M107.96 172.48C107.871 171.869 108.024 171.247 108.386 170.747C108.749 170.247 109.292 169.908 109.901 169.803C114.612 169.027 125.318 167.448 130.698 168.197C134.713 168.759 135.757 171.088 135.931 173.002C135.958 173.337 135.913 173.674 135.799 173.99C135.686 174.307 135.505 174.595 135.271 174.836C135.036 175.077 134.753 175.265 134.44 175.387C134.126 175.509 133.791 175.563 133.455 175.544L110.195 174.501C109.647 174.473 109.125 174.257 108.718 173.888C108.31 173.52 108.043 173.023 107.96 172.48Z" fill="black"/>
<path d="M121.41 406.282L130.042 412.278L144.483 392.699L135.851 386.716L121.41 406.282Z" fill="#E58A7B"/>
<path d="M101.282 405.895L110.396 411.087L123.177 390.384L114.063 385.191L101.282 405.895Z" fill="#E58A7B"/>
<path d="M144.469 392.699L137.028 402.789L128.396 396.807L135.837 386.716L144.469 392.699Z" fill="#CF6F64"/>
<path d="M114.05 385.191L123.177 390.397L116.592 401.063L107.465 395.857L114.05 385.191Z" fill="#CF6F64"/>
<path d="M128.691 237.843C128.691 237.843 162.389 280.307 156.059 320.925C150.96 353.727 121.383 398.146 121.383 398.146L107.478 391.24C117.279 371.6 125.644 351.276 132.505 330.427C134.621 323.954 135.238 317.085 134.311 310.338C133.383 303.592 130.935 297.144 127.152 291.482C110.075 266.55 82.7196 281.391 101.121 237.843H128.691Z" fill="#407BFF"/>
<path opacity="0.6" d="M128.691 237.843C128.691 237.843 162.389 280.307 156.059 320.925C150.96 353.727 121.383 398.146 121.383 398.146L107.478 391.24C117.279 371.6 125.644 351.276 132.505 330.427C134.621 323.954 135.238 317.085 134.311 310.338C133.383 303.592 130.935 297.144 127.152 291.482C110.075 266.55 82.7196 281.391 101.121 237.843H128.691Z" fill="black"/>
<path opacity="0.4" d="M145.219 265.118L140.321 260.246C140.321 260.634 149.809 319.212 152.472 335.673C154.044 330.865 155.248 325.943 156.072 320.952C159.204 301.024 152.66 280.669 145.219 265.118Z" fill="black"/>
<path d="M143.733 237.843C143.733 237.843 184.311 291.215 185.462 323.214C186.412 349.98 141.298 401.839 141.298 401.839L128.182 393.354C128.182 393.354 154.587 356.524 161.238 326.439C158.669 296.621 104.333 237.843 104.333 237.843H143.733Z" fill="#407BFF"/>
<path opacity="0.6" d="M143.733 237.843C143.733 237.843 184.311 291.215 185.462 323.214C186.412 349.98 141.298 401.839 141.298 401.839L128.182 393.354C128.182 393.354 154.587 356.524 161.238 326.439C158.669 296.621 104.333 237.843 104.333 237.843H143.733Z" fill="black"/>
<path d="M93.5332 174.153C89.1971 175.183 85.0349 190.949 85.0349 190.949L101.991 202.271C101.991 202.271 107.639 189.798 105.658 184.337C103.611 178.65 98.9801 172.855 93.5332 174.153Z" fill="#407BFF"/>
<path opacity="0.2" d="M96.8523 184.311L95.6746 198.055L101.978 202.284C103.718 198.366 105.007 194.262 105.819 190.052L96.8523 184.311Z" fill="black"/>
<path d="M148.752 174.461C148.752 174.461 153.757 176.214 143.733 237.83H101.095C101.817 220.431 101.831 209.725 93.5332 174.153C99.5035 172.922 105.555 172.126 111.641 171.771C118.087 171.308 124.559 171.308 131.006 171.771C139.33 172.533 148.752 174.461 148.752 174.461Z" fill="#407BFF"/>
<path d="M153.088 184.311C154.052 186.987 155.069 189.865 156.139 192.635C157.21 195.405 158.227 198.256 159.311 201.066L162.59 209.471L163.42 211.572L163.848 212.616L164.049 213.138C164.049 213.231 164.049 213.231 164.049 213.218C163.804 212.873 163.484 212.589 163.112 212.388C162.582 212.077 161.986 211.898 161.372 211.866C160.862 211.85 160.355 211.946 159.887 212.147C159.271 212.428 159.271 212.549 159.284 212.535C159.396 212.446 159.495 212.343 159.579 212.228C160.32 211.255 160.961 210.21 161.493 209.109C162.122 207.878 162.724 206.567 163.326 205.242C164.504 202.565 165.588 199.795 166.672 196.998C167.756 194.201 168.786 191.377 169.79 188.526L172.841 179.988L177.994 181.326C176.977 187.429 175.665 193.371 174.086 199.42C173.323 202.431 172.427 205.416 171.409 208.427C170.901 209.939 170.339 211.438 169.696 212.977C169.027 214.648 168.202 216.252 167.234 217.768C166.878 218.279 166.484 218.762 166.056 219.214C165.373 219.952 164.543 220.54 163.62 220.94C162.802 221.292 161.915 221.456 161.024 221.422C160.027 221.385 159.055 221.095 158.2 220.579C157.192 219.95 156.355 219.081 155.765 218.049C155.564 217.701 155.39 217.353 155.269 217.099L155.015 216.591L154.507 215.547L153.489 213.472C152.151 210.689 150.813 207.878 149.649 205.054C148.484 202.23 147.253 199.367 146.102 196.489C144.951 193.612 143.921 190.734 142.944 187.63L153.088 184.311Z" fill="#E58A7B"/>
<path d="M148.752 174.461C153.878 175.678 159.646 190.828 159.646 190.828L144.402 203.796C144.402 203.796 134.539 187.282 136.533 181.835C138.607 176.16 142.06 172.868 148.752 174.461Z" fill="#407BFF"/>
<path d="M175.264 175.197L180.617 170.727L184.337 176.521L181.594 181.353C181.594 181.353 177.231 185.368 173.377 183.32C172.765 181.945 172.618 180.408 172.959 178.942C173.299 177.476 174.108 176.161 175.264 175.197Z" fill="#E58A7B"/>
<path d="M190.28 170.74L189.878 172.199L181.407 173.617L180.577 170.727L190.28 170.74Z" fill="#E58A7B"/>
<path d="M142.341 402.522L127.058 392.645L129.801 387.881L146.972 398.44L142.341 402.522Z" fill="#407BFF"/>
<path d="M116.378 410.391C115.037 410.227 113.749 409.77 112.604 409.053C112.557 409.036 112.516 409.006 112.487 408.965C112.458 408.924 112.442 408.875 112.442 408.825C112.442 408.775 112.458 408.727 112.487 408.686C112.516 408.645 112.557 408.614 112.604 408.598C113.019 408.464 116.619 407.353 117.663 408.21C117.78 408.307 117.869 408.434 117.921 408.578C117.973 408.721 117.985 408.876 117.957 409.026C117.939 409.267 117.859 409.499 117.725 409.701C117.592 409.902 117.409 410.066 117.195 410.177C116.944 410.314 116.664 410.387 116.378 410.391ZM113.367 408.919C115.04 409.776 116.378 410.083 117.021 409.762C117.16 409.685 117.278 409.573 117.362 409.437C117.447 409.301 117.495 409.146 117.502 408.986C117.502 408.772 117.502 408.678 117.382 408.625C116.82 408.17 114.812 408.518 113.34 408.919H113.367Z" fill="#263238"/>
<path d="M112.698 409.147C112.627 409.146 112.56 409.117 112.511 409.066C112.491 409.029 112.48 408.988 112.48 408.946C112.48 408.904 112.491 408.862 112.511 408.825C112.511 408.705 113.38 405.801 114.746 405.145C114.92 405.066 115.109 405.024 115.301 405.024C115.493 405.024 115.682 405.066 115.856 405.145C116.044 405.204 116.207 405.325 116.319 405.487C116.43 405.65 116.484 405.845 116.472 406.042C116.378 407.246 113.929 408.906 112.805 409.187L112.698 409.147ZM115.294 405.493C115.164 405.497 115.036 405.529 114.92 405.587C114.09 405.988 113.407 407.554 113.073 408.504C114.25 408.009 115.87 406.698 115.923 405.961C115.923 405.841 115.923 405.694 115.615 405.56C115.515 405.506 115.407 405.47 115.294 405.453V405.493Z" fill="#263238"/>
<path d="M135.476 416.173C133.964 416.173 131.862 414.232 130.711 413.041C130.682 413 130.666 412.951 130.666 412.901C130.666 412.85 130.682 412.801 130.711 412.76C130.738 412.717 130.775 412.682 130.82 412.658C130.865 412.635 130.915 412.624 130.966 412.626C131.501 412.626 136.145 413.322 136.801 414.634C136.87 414.751 136.907 414.885 136.907 415.022C136.907 415.158 136.87 415.292 136.801 415.41C136.702 415.614 136.554 415.79 136.369 415.921C136.184 416.052 135.969 416.134 135.744 416.159L135.476 416.173ZM131.595 413.229C133.281 414.861 134.767 415.771 135.61 415.664C135.757 415.645 135.898 415.59 136.019 415.503C136.141 415.417 136.239 415.302 136.306 415.169C136.336 415.123 136.352 415.07 136.352 415.015C136.352 414.961 136.336 414.907 136.306 414.861C135.958 414.139 133.482 413.523 131.595 413.229Z" fill="#263238"/>
<path d="M131.742 413.161C131.441 413.17 131.141 413.148 130.845 413.095C130.804 413.088 130.765 413.072 130.732 413.046C130.699 413.02 130.674 412.986 130.658 412.947C130.638 412.908 130.627 412.864 130.627 412.82C130.627 412.776 130.638 412.732 130.658 412.693C130.738 412.599 132.545 410.418 134.258 410.271C134.743 410.233 135.223 410.387 135.596 410.699C136.118 411.154 136.091 411.556 135.958 411.81C135.623 412.72 133.308 413.161 131.742 413.161ZM131.394 412.666C132.893 412.747 135.288 412.251 135.596 411.596C135.596 411.596 135.703 411.382 135.355 411.087C135.217 410.967 135.055 410.876 134.88 410.821C134.705 410.766 134.521 410.747 134.338 410.766C133.184 411.088 132.157 411.756 131.394 412.68V412.666Z" fill="#263238"/>
<path d="M113.059 407.701L101.71 404.489C101.515 404.43 101.304 404.445 101.119 404.531C100.934 404.618 100.787 404.77 100.707 404.958L96.879 413.563C96.7891 413.783 96.7469 414.02 96.7552 414.258C96.7634 414.496 96.8219 414.73 96.9268 414.943C97.0318 415.157 97.1807 415.346 97.3639 415.498C97.5471 415.65 97.7604 415.761 97.9898 415.825C102.005 416.869 103.932 417.163 108.924 418.595C112.002 419.452 116.392 421.044 120.634 422.249C124.876 423.453 126.295 419.318 124.649 418.434C117.208 414.5 116.619 411.743 114.585 408.799C114.221 408.265 113.681 407.877 113.059 407.701Z" fill="#407BFF"/>
<path d="M131.019 411.475L121.33 404.784C121.166 404.664 120.963 404.609 120.761 404.628C120.558 404.648 120.37 404.741 120.232 404.891L113.809 411.796C113.652 411.975 113.535 412.185 113.466 412.412C113.397 412.639 113.377 412.878 113.407 413.113C113.437 413.349 113.518 413.575 113.642 413.777C113.767 413.979 113.933 414.153 114.13 414.286C117.542 416.574 119.309 417.498 123.578 420.455C126.255 422.275 131.434 426.317 135.047 428.833C138.661 431.349 141.351 427.896 140.066 426.531C134.311 420.388 133.053 416.534 132.103 413.041C131.938 412.407 131.554 411.853 131.019 411.475Z" fill="#407BFF"/>
<path d="M123.163 399.029L105.698 390.344L107.505 385.606L126.161 394.76L123.163 399.029Z" fill="#407BFF"/>
<path d="M100.452 235.327L98.9801 239.181C98.8329 239.475 99.1809 239.783 99.676 239.783H143.947C144.335 239.783 144.657 239.596 144.683 239.355L145.058 235.527C145.058 235.273 144.75 235.046 144.335 235.046H101.148C101.018 235.033 100.887 235.052 100.766 235.101C100.645 235.15 100.537 235.228 100.452 235.327Z" fill="#407BFF"/>
<path opacity="0.4" d="M100.452 235.327L98.9801 239.181C98.8329 239.475 99.1809 239.783 99.676 239.783H143.947C144.335 239.783 144.657 239.596 144.683 239.355L145.058 235.527C145.058 235.273 144.75 235.046 144.335 235.046H101.148C101.018 235.033 100.887 235.052 100.766 235.101C100.645 235.15 100.537 235.228 100.452 235.327Z" fill="white"/>
<path d="M107.425 240.158H106.261C106.033 240.158 105.859 240.038 105.873 239.89L106.421 234.925C106.421 234.791 106.635 234.671 106.863 234.671H108.027C108.255 234.671 108.429 234.791 108.415 234.925L107.867 239.89C107.853 240.038 107.653 240.158 107.425 240.158Z" fill="#407BFF"/>
<path d="M134.726 240.158H133.575C133.348 240.158 133.174 240.038 133.187 239.89L133.723 234.925C133.723 234.791 133.95 234.671 134.178 234.671H135.329C135.556 234.671 135.743 234.791 135.717 234.925L135.181 239.89C135.114 240.038 134.967 240.158 134.726 240.158Z" fill="#407BFF"/>
<g style="mix-blend-mode:multiply">
<path d="M106.408 466.801C126.209 466.801 142.261 465.639 142.261 464.205C142.261 462.771 126.209 461.608 106.408 461.608C86.6065 461.608 70.5544 462.771 70.5544 464.205C70.5544 465.639 86.6065 466.801 106.408 466.801Z" fill="#F5F5F5"/>
</g>
<path d="M128.249 460.538C121.905 458.691 114.866 456.322 110.61 453.846C110.49 453.766 110.356 453.726 110.235 453.659V424.939H123.07C124.044 424.881 124.959 424.453 125.629 423.743C126.298 423.033 126.671 422.094 126.671 421.118C126.671 420.142 126.298 419.203 125.629 418.492C124.959 417.782 124.044 417.354 123.07 417.297H110.302V286.383H102.594V417.297H89.8395C89.3187 417.266 88.7971 417.342 88.3067 417.52C87.8164 417.698 87.3676 417.975 86.9879 418.332C86.6083 418.69 86.3058 419.122 86.0991 419.601C85.8923 420.08 85.7857 420.596 85.7857 421.118C85.7857 421.639 85.8923 422.156 86.0991 422.635C86.3058 423.114 86.6083 423.545 86.9879 423.903C87.3676 424.261 87.8164 424.537 88.3067 424.715C88.7971 424.893 89.3187 424.969 89.8395 424.939H102.594V453.619C102.473 453.619 102.353 453.726 102.232 453.806C97.9095 456.322 90.9235 458.691 84.5799 460.497C84.1514 460.627 83.7834 460.906 83.5426 461.283C83.3018 461.661 83.2042 462.112 83.2672 462.555C83.3303 462.998 83.55 463.404 83.8865 463.699C84.2231 463.995 84.6542 464.16 85.1018 464.164H127.727C128.155 464.135 128.56 463.96 128.874 463.669C129.188 463.377 129.393 462.986 129.454 462.562C129.515 462.138 129.429 461.705 129.21 461.337C128.99 460.968 128.651 460.686 128.249 460.538Z" fill="#E0E0E0"/>
<path d="M130.216 273.054H82.626C78.7974 273.054 75.6936 276.157 75.6936 279.986V294.132C75.6936 297.961 78.7974 301.065 82.626 301.065H130.216C134.045 301.065 137.149 297.961 137.149 294.132V279.986C137.149 276.157 134.045 273.054 130.216 273.054Z" fill="#407BFF"/>
<path d="M82.1843 301.078V303.514C82.1843 305.521 84.3658 307.154 87.0424 307.154H125.853C128.53 307.154 130.711 305.521 130.711 303.514V301.078H82.1843Z" fill="#407BFF"/>
<path opacity="0.3" d="M82.1843 301.078V303.514C82.1843 305.521 84.3658 307.154 87.0424 307.154H125.853C128.53 307.154 130.711 305.521 130.711 303.514V301.078H82.1843Z" fill="white"/>
</svg>
